<?xml version="1.0" encoding="iso-8859-1"?>
<!-- Generator: Adobe Illustrator 18.0.0, SVG Export Plug-In . SVG Version: 6.00 Build 0)  -->
<!DOCTYPE svg PUBLIC "-//W3C//DTD SVG 1.1//EN" "http://www.w3.org/Graphics/SVG/1.1/DTD/svg11.dtd">
<svg version="1.1" id="Capa_1" xmlns="http://www.w3.org/2000/svg" xmlns:xlink="http://www.w3.org/1999/xlink" x="0px" y="0px"
	 viewBox="0 0 187.435 187.435" style="enable-background:new 0 0 187.435 187.435;" xml:space="preserve">
<g>
	<path style="fill:#80C1BE;" d="M187.435,178.179c0,5.112-4.145,9.256-9.257,9.256H9.256c-5.112,0-9.256-4.144-9.256-9.256V9.257
		C0,4.144,4.144,0,9.256,0h168.922c5.112,0,9.257,4.144,9.257,9.257V178.179z"/>
	<path style="fill:#4C8C87;" d="M187.435,178.179V70.663l-29.911-13.085l-135.38,109.86l60.867,19.998h95.167
		C183.29,187.435,187.435,183.291,187.435,178.179z"/>
	<g>
		<g>
			<g>
				<g>
					<polygon style="fill:#EAC873;" points="89.161,57.577 75.566,144.972 147.425,144.972 157.524,57.577 					"/>
					<polygon style="fill:#E5BC61;" points="147.425,144.972 165.29,144.972 157.524,57.577 					"/>
					<polygon style="fill:#D6AE54;" points="147.425,144.972 156.357,134.485 157.524,57.577 					"/>
					<polygon style="fill:#EAC873;" points="165.29,144.972 156.357,134.485 157.524,57.577 					"/>
				</g>
				<g>
					<path style="fill:#876B66;" d="M134.985,60.543l-2.314-0.298c0.033-0.253,3.141-25.287-5.031-34.577
						c-1.978-2.248-4.398-3.34-7.406-3.34c-3.007,0-5.428,1.092-7.407,3.341c-8.176,9.298-5.063,34.324-5.03,34.576l-2.313,0.298
						c-0.139-1.071-3.272-26.333,5.595-36.413c2.412-2.742,5.491-4.132,9.155-4.132c3.664,0,6.743,1.39,9.156,4.132
						C138.257,34.21,135.121,59.472,134.985,60.543z"/>
				</g>
				<path style="fill:#876B66;" d="M106.859,58.548c-1.839,0-3.328,1.49-3.328,3.327c0,1.836,1.489,3.326,3.328,3.326
					c1.834,0,3.324-1.489,3.324-3.326C110.183,60.038,108.693,58.548,106.859,58.548z M106.859,63.453
					c-0.873,0-1.579-0.707-1.579-1.579c0-0.872,0.706-1.579,1.579-1.579c0.869,0,1.577,0.707,1.577,1.579
					C108.436,62.746,107.728,63.453,106.859,63.453z"/>
				<path style="fill:#876B66;" d="M133.806,58.548c-1.839,0-3.328,1.49-3.328,3.327c0,1.836,1.489,3.326,3.328,3.326
					c1.834,0,3.324-1.489,3.324-3.326C137.13,60.038,135.64,58.548,133.806,58.548z M133.806,63.453c-0.874,0-1.58-0.707-1.58-1.579
					c0-0.872,0.706-1.579,1.58-1.579c0.868,0,1.576,0.707,1.576,1.579C135.382,62.746,134.674,63.453,133.806,63.453z"/>
			</g>
		</g>
		<g>
			<g>
				<g>
					<polygon style="fill:#EF8067;" points="35.74,80.041 22.144,167.437 94.003,167.437 104.102,80.041 					"/>
					<polygon style="fill:#EF8067;" points="94.003,167.437 111.868,167.437 104.102,80.041 					"/>
					<polygon style="fill:#E54C3C;" points="94.003,167.437 102.936,156.949 104.102,80.041 					"/>
					<polygon style="fill:#EA6D59;" points="111.868,167.437 102.936,156.949 104.102,80.041 					"/>
				</g>
				<g>
					<path style="fill:#876B66;" d="M81.563,83.007l-2.312-0.298c0.031-0.252,3.14-25.287-5.033-34.577
						c-1.977-2.248-4.398-3.34-7.406-3.34c-3.005,0-5.428,1.092-7.407,3.341c-8.175,9.298-5.064,34.324-5.03,34.576l-2.312,0.298
						c-0.139-1.071-3.272-26.333,5.594-36.412c2.412-2.742,5.491-4.133,9.155-4.133c3.665,0,6.744,1.391,9.156,4.133
						C84.836,56.675,81.699,81.937,81.563,83.007z"/>
				</g>
				<path style="fill:#876B66;" d="M53.437,81.012c-1.839,0-3.326,1.49-3.326,3.327c0,1.836,1.487,3.326,3.326,3.326
					c1.834,0,3.324-1.489,3.324-3.326C56.761,82.502,55.271,81.012,53.437,81.012z M53.437,85.918c-0.873,0-1.579-0.707-1.579-1.579
					c0-0.872,0.706-1.578,1.579-1.578c0.869,0,1.577,0.706,1.577,1.578C55.014,85.211,54.306,85.918,53.437,85.918z"/>
				<path style="fill:#876B66;" d="M80.385,81.012c-1.84,0-3.329,1.49-3.329,3.327c0,1.836,1.489,3.326,3.329,3.326
					c1.833,0,3.324-1.489,3.324-3.326C83.709,82.502,82.218,81.012,80.385,81.012z M80.385,85.918c-0.875,0-1.581-0.707-1.581-1.579
					c0-0.872,0.706-1.578,1.581-1.578c0.868,0,1.575,0.706,1.575,1.578C81.96,85.211,81.253,85.918,80.385,85.918z"/>
			</g>
		</g>
	</g>
</g>
<g>
</g>
<g>
</g>
<g>
</g>
<g>
</g>
<g>
</g>
<g>
</g>
<g>
</g>
<g>
</g>
<g>
</g>
<g>
</g>
<g>
</g>
<g>
</g>
<g>
</g>
<g>
</g>
<g>
</g>
</svg>
